<mxfile host="app.diagrams.net" modified="2022-04-01T13:05:08.870Z" agent="5.0 (Windows NT 10.0; Win64; x64) AppleWebKit/537.36 (KHTML, like Gecko) Chrome/99.0.4844.84 Safari/537.36" etag="oM2foelaVgwCcBpAPshq" version="17.4.0" type="github">
  <diagram id="C5RBs43oDa-KdzZeNtuy" name="Page-1">
    <mxGraphModel dx="1378" dy="571" grid="1" gridSize="10" guides="1" tooltips="1" connect="1" arrows="1" fold="1" page="1" pageScale="1" pageWidth="827" pageHeight="1169" math="0" shadow="0">
      <root>
        <mxCell id="WIyWlLk6GJQsqaUBKTNV-0" />
        <mxCell id="WIyWlLk6GJQsqaUBKTNV-1" parent="WIyWlLk6GJQsqaUBKTNV-0" />
        <mxCell id="WIyWlLk6GJQsqaUBKTNV-2" value="" style="rounded=0;html=1;jettySize=auto;orthogonalLoop=1;fontSize=11;endArrow=block;endFill=0;endSize=8;strokeWidth=1;shadow=0;labelBackgroundColor=none;edgeStyle=orthogonalEdgeStyle;" parent="WIyWlLk6GJQsqaUBKTNV-1" source="WIyWlLk6GJQsqaUBKTNV-3" edge="1">
          <mxGeometry relative="1" as="geometry">
            <mxPoint x="414" y="120" as="targetPoint" />
          </mxGeometry>
        </mxCell>
        <mxCell id="WIyWlLk6GJQsqaUBKTNV-3" value="Start" style="rounded=1;whiteSpace=wrap;html=1;fontSize=12;glass=0;strokeWidth=1;shadow=0;" parent="WIyWlLk6GJQsqaUBKTNV-1" vertex="1">
          <mxGeometry x="354" y="40" width="120" height="40" as="geometry" />
        </mxCell>
        <mxCell id="P1RDxfDmJsvN-1OjrffR-0" value="squareAndRoot" style="rounded=0;whiteSpace=wrap;html=1;" vertex="1" parent="WIyWlLk6GJQsqaUBKTNV-1">
          <mxGeometry x="650" y="150" width="110" height="50" as="geometry" />
        </mxCell>
        <mxCell id="P1RDxfDmJsvN-1OjrffR-77" style="edgeStyle=orthogonalEdgeStyle;rounded=0;orthogonalLoop=1;jettySize=auto;html=1;fontSize=12;fontColor=#000000;" edge="1" parent="WIyWlLk6GJQsqaUBKTNV-1" source="P1RDxfDmJsvN-1OjrffR-1">
          <mxGeometry relative="1" as="geometry">
            <mxPoint x="430" y="600" as="targetPoint" />
          </mxGeometry>
        </mxCell>
        <mxCell id="P1RDxfDmJsvN-1OjrffR-1" value="fibonacci" style="rounded=0;whiteSpace=wrap;html=1;" vertex="1" parent="WIyWlLk6GJQsqaUBKTNV-1">
          <mxGeometry x="450" y="150" width="90" height="50" as="geometry" />
        </mxCell>
        <mxCell id="P1RDxfDmJsvN-1OjrffR-74" style="edgeStyle=orthogonalEdgeStyle;rounded=0;orthogonalLoop=1;jettySize=auto;html=1;fontSize=12;fontColor=#000000;" edge="1" parent="WIyWlLk6GJQsqaUBKTNV-1" source="P1RDxfDmJsvN-1OjrffR-2">
          <mxGeometry relative="1" as="geometry">
            <mxPoint x="400" y="600" as="targetPoint" />
            <Array as="points">
              <mxPoint x="320" y="220" />
              <mxPoint x="400" y="220" />
            </Array>
          </mxGeometry>
        </mxCell>
        <mxCell id="P1RDxfDmJsvN-1OjrffR-2" value="factorial" style="rounded=0;whiteSpace=wrap;html=1;" vertex="1" parent="WIyWlLk6GJQsqaUBKTNV-1">
          <mxGeometry x="270" y="150" width="100" height="50" as="geometry" />
        </mxCell>
        <mxCell id="P1RDxfDmJsvN-1OjrffR-3" value="arithematicOperation" style="rounded=0;whiteSpace=wrap;html=1;align=center;" vertex="1" parent="WIyWlLk6GJQsqaUBKTNV-1">
          <mxGeometry x="60" y="150" width="130" height="50" as="geometry" />
        </mxCell>
        <mxCell id="P1RDxfDmJsvN-1OjrffR-8" value="" style="endArrow=none;html=1;rounded=0;fontSize=12;fontColor=#000000;" edge="1" parent="WIyWlLk6GJQsqaUBKTNV-1">
          <mxGeometry width="50" height="50" relative="1" as="geometry">
            <mxPoint x="120" y="120" as="sourcePoint" />
            <mxPoint x="710" y="120" as="targetPoint" />
          </mxGeometry>
        </mxCell>
        <mxCell id="P1RDxfDmJsvN-1OjrffR-10" value="" style="rounded=0;html=1;jettySize=auto;orthogonalLoop=1;fontSize=11;endArrow=block;endFill=0;endSize=8;strokeWidth=1;shadow=0;labelBackgroundColor=none;edgeStyle=orthogonalEdgeStyle;entryX=0.5;entryY=0;entryDx=0;entryDy=0;" edge="1" parent="WIyWlLk6GJQsqaUBKTNV-1" target="P1RDxfDmJsvN-1OjrffR-3">
          <mxGeometry relative="1" as="geometry">
            <mxPoint x="120" y="120" as="sourcePoint" />
            <mxPoint x="125" y="140" as="targetPoint" />
            <Array as="points">
              <mxPoint x="125" y="130" />
              <mxPoint x="125" y="130" />
            </Array>
          </mxGeometry>
        </mxCell>
        <mxCell id="P1RDxfDmJsvN-1OjrffR-11" value="" style="rounded=0;html=1;jettySize=auto;orthogonalLoop=1;fontSize=11;endArrow=block;endFill=0;endSize=8;strokeWidth=1;shadow=0;labelBackgroundColor=none;edgeStyle=orthogonalEdgeStyle;entryX=0.5;entryY=0;entryDx=0;entryDy=0;" edge="1" parent="WIyWlLk6GJQsqaUBKTNV-1">
          <mxGeometry relative="1" as="geometry">
            <mxPoint x="319.5" y="120" as="sourcePoint" />
            <mxPoint x="320" y="150" as="targetPoint" />
          </mxGeometry>
        </mxCell>
        <mxCell id="P1RDxfDmJsvN-1OjrffR-12" value="" style="rounded=0;html=1;jettySize=auto;orthogonalLoop=1;fontSize=11;endArrow=block;endFill=0;endSize=8;strokeWidth=1;shadow=0;labelBackgroundColor=none;edgeStyle=orthogonalEdgeStyle;entryX=0.5;entryY=0;entryDx=0;entryDy=0;" edge="1" parent="WIyWlLk6GJQsqaUBKTNV-1">
          <mxGeometry relative="1" as="geometry">
            <mxPoint x="494.5" y="120" as="sourcePoint" />
            <mxPoint x="495" y="150" as="targetPoint" />
          </mxGeometry>
        </mxCell>
        <mxCell id="P1RDxfDmJsvN-1OjrffR-13" value="" style="rounded=0;html=1;jettySize=auto;orthogonalLoop=1;fontSize=11;endArrow=block;endFill=0;endSize=8;strokeWidth=1;shadow=0;labelBackgroundColor=none;edgeStyle=orthogonalEdgeStyle;entryX=0.5;entryY=0;entryDx=0;entryDy=0;" edge="1" parent="WIyWlLk6GJQsqaUBKTNV-1">
          <mxGeometry relative="1" as="geometry">
            <mxPoint x="710" y="120" as="sourcePoint" />
            <mxPoint x="710.5" y="150" as="targetPoint" />
            <Array as="points">
              <mxPoint x="710" y="140" />
              <mxPoint x="711" y="140" />
            </Array>
          </mxGeometry>
        </mxCell>
        <mxCell id="P1RDxfDmJsvN-1OjrffR-16" value="" style="endArrow=none;html=1;rounded=0;fontSize=12;fontColor=#000000;entryX=0.5;entryY=1;entryDx=0;entryDy=0;" edge="1" parent="WIyWlLk6GJQsqaUBKTNV-1" target="P1RDxfDmJsvN-1OjrffR-3">
          <mxGeometry width="50" height="50" relative="1" as="geometry">
            <mxPoint x="80" y="520" as="sourcePoint" />
            <mxPoint x="130" y="220" as="targetPoint" />
            <Array as="points">
              <mxPoint x="80" y="280" />
              <mxPoint x="80" y="240" />
            </Array>
          </mxGeometry>
        </mxCell>
        <mxCell id="P1RDxfDmJsvN-1OjrffR-17" value="case choice:" style="text;html=1;strokeColor=none;fillColor=none;align=center;verticalAlign=middle;whiteSpace=wrap;rounded=0;labelBackgroundColor=#FFFFFF;fontSize=12;fontColor=#000000;" vertex="1" parent="WIyWlLk6GJQsqaUBKTNV-1">
          <mxGeometry x="340" y="90" width="60" height="30" as="geometry" />
        </mxCell>
        <mxCell id="P1RDxfDmJsvN-1OjrffR-18" value="case&amp;nbsp;&lt;br&gt;choice:&amp;nbsp;" style="text;html=1;strokeColor=none;fillColor=none;align=center;verticalAlign=middle;whiteSpace=wrap;rounded=0;labelBackgroundColor=#FFFFFF;fontSize=12;fontColor=#000000;" vertex="1" parent="WIyWlLk6GJQsqaUBKTNV-1">
          <mxGeometry x="20" y="210" width="60" height="30" as="geometry" />
        </mxCell>
        <mxCell id="P1RDxfDmJsvN-1OjrffR-36" value="" style="edgeStyle=orthogonalEdgeStyle;rounded=0;orthogonalLoop=1;jettySize=auto;html=1;fontSize=12;fontColor=#000000;" edge="1" parent="WIyWlLk6GJQsqaUBKTNV-1" source="P1RDxfDmJsvN-1OjrffR-19" target="P1RDxfDmJsvN-1OjrffR-22">
          <mxGeometry relative="1" as="geometry" />
        </mxCell>
        <mxCell id="P1RDxfDmJsvN-1OjrffR-19" value="addition" style="rounded=0;whiteSpace=wrap;html=1;" vertex="1" parent="WIyWlLk6GJQsqaUBKTNV-1">
          <mxGeometry x="120" y="260" width="100" height="30" as="geometry" />
        </mxCell>
        <mxCell id="P1RDxfDmJsvN-1OjrffR-20" value="division" style="rounded=0;whiteSpace=wrap;html=1;" vertex="1" parent="WIyWlLk6GJQsqaUBKTNV-1">
          <mxGeometry x="120" y="430" width="100" height="30" as="geometry" />
        </mxCell>
        <mxCell id="P1RDxfDmJsvN-1OjrffR-21" value="mmultiplication" style="rounded=0;whiteSpace=wrap;html=1;" vertex="1" parent="WIyWlLk6GJQsqaUBKTNV-1">
          <mxGeometry x="120" y="370" width="100" height="30" as="geometry" />
        </mxCell>
        <mxCell id="P1RDxfDmJsvN-1OjrffR-43" value="" style="edgeStyle=orthogonalEdgeStyle;rounded=0;orthogonalLoop=1;jettySize=auto;html=1;fontSize=12;fontColor=#000000;" edge="1" parent="WIyWlLk6GJQsqaUBKTNV-1" source="P1RDxfDmJsvN-1OjrffR-22" target="P1RDxfDmJsvN-1OjrffR-21">
          <mxGeometry relative="1" as="geometry" />
        </mxCell>
        <mxCell id="P1RDxfDmJsvN-1OjrffR-22" value="substraction" style="rounded=0;whiteSpace=wrap;html=1;" vertex="1" parent="WIyWlLk6GJQsqaUBKTNV-1">
          <mxGeometry x="120" y="320" width="100" height="30" as="geometry" />
        </mxCell>
        <mxCell id="P1RDxfDmJsvN-1OjrffR-84" style="edgeStyle=orthogonalEdgeStyle;rounded=0;orthogonalLoop=1;jettySize=auto;html=1;fontSize=12;fontColor=#000000;" edge="1" parent="WIyWlLk6GJQsqaUBKTNV-1" source="P1RDxfDmJsvN-1OjrffR-23">
          <mxGeometry relative="1" as="geometry">
            <mxPoint x="170" y="600" as="targetPoint" />
          </mxGeometry>
        </mxCell>
        <mxCell id="P1RDxfDmJsvN-1OjrffR-23" value="modulous" style="rounded=0;whiteSpace=wrap;html=1;" vertex="1" parent="WIyWlLk6GJQsqaUBKTNV-1">
          <mxGeometry x="120" y="500" width="100" height="30" as="geometry" />
        </mxCell>
        <mxCell id="P1RDxfDmJsvN-1OjrffR-29" value="" style="endArrow=classic;html=1;rounded=0;fontSize=12;fontColor=#000000;entryX=0;entryY=0.5;entryDx=0;entryDy=0;" edge="1" parent="WIyWlLk6GJQsqaUBKTNV-1" target="P1RDxfDmJsvN-1OjrffR-19">
          <mxGeometry width="50" height="50" relative="1" as="geometry">
            <mxPoint x="80" y="275" as="sourcePoint" />
            <mxPoint x="390" y="290" as="targetPoint" />
          </mxGeometry>
        </mxCell>
        <mxCell id="P1RDxfDmJsvN-1OjrffR-30" value="" style="endArrow=classic;html=1;rounded=0;fontSize=12;fontColor=#000000;entryX=0;entryY=0.5;entryDx=0;entryDy=0;" edge="1" parent="WIyWlLk6GJQsqaUBKTNV-1">
          <mxGeometry width="50" height="50" relative="1" as="geometry">
            <mxPoint x="80" y="334.5" as="sourcePoint" />
            <mxPoint x="120" y="334.5" as="targetPoint" />
          </mxGeometry>
        </mxCell>
        <mxCell id="P1RDxfDmJsvN-1OjrffR-31" value="" style="endArrow=classic;html=1;rounded=0;fontSize=12;fontColor=#000000;entryX=0;entryY=0.5;entryDx=0;entryDy=0;" edge="1" parent="WIyWlLk6GJQsqaUBKTNV-1">
          <mxGeometry width="50" height="50" relative="1" as="geometry">
            <mxPoint x="80" y="384.5" as="sourcePoint" />
            <mxPoint x="120" y="384.5" as="targetPoint" />
          </mxGeometry>
        </mxCell>
        <mxCell id="P1RDxfDmJsvN-1OjrffR-32" value="" style="endArrow=classic;html=1;rounded=0;fontSize=12;fontColor=#000000;entryX=0;entryY=0.5;entryDx=0;entryDy=0;" edge="1" parent="WIyWlLk6GJQsqaUBKTNV-1">
          <mxGeometry width="50" height="50" relative="1" as="geometry">
            <mxPoint x="80" y="444.5" as="sourcePoint" />
            <mxPoint x="120" y="444.5" as="targetPoint" />
          </mxGeometry>
        </mxCell>
        <mxCell id="P1RDxfDmJsvN-1OjrffR-35" value="" style="endArrow=classic;html=1;rounded=0;fontSize=12;fontColor=#000000;entryX=0;entryY=0.5;entryDx=0;entryDy=0;" edge="1" parent="WIyWlLk6GJQsqaUBKTNV-1">
          <mxGeometry width="50" height="50" relative="1" as="geometry">
            <mxPoint x="80" y="520" as="sourcePoint" />
            <mxPoint x="120" y="520" as="targetPoint" />
          </mxGeometry>
        </mxCell>
        <mxCell id="P1RDxfDmJsvN-1OjrffR-40" value="" style="edgeStyle=orthogonalEdgeStyle;rounded=0;orthogonalLoop=1;jettySize=auto;html=1;fontSize=12;fontColor=#000000;" edge="1" parent="WIyWlLk6GJQsqaUBKTNV-1">
          <mxGeometry relative="1" as="geometry">
            <mxPoint x="170" y="350" as="sourcePoint" />
            <mxPoint x="169.5" y="370" as="targetPoint" />
          </mxGeometry>
        </mxCell>
        <mxCell id="P1RDxfDmJsvN-1OjrffR-41" value="" style="edgeStyle=orthogonalEdgeStyle;rounded=0;orthogonalLoop=1;jettySize=auto;html=1;fontSize=12;fontColor=#000000;exitX=0.5;exitY=1;exitDx=0;exitDy=0;" edge="1" parent="WIyWlLk6GJQsqaUBKTNV-1" source="P1RDxfDmJsvN-1OjrffR-20">
          <mxGeometry relative="1" as="geometry">
            <mxPoint x="169.5" y="470" as="sourcePoint" />
            <mxPoint x="169.5" y="500" as="targetPoint" />
          </mxGeometry>
        </mxCell>
        <mxCell id="P1RDxfDmJsvN-1OjrffR-42" value="" style="edgeStyle=orthogonalEdgeStyle;rounded=0;orthogonalLoop=1;jettySize=auto;html=1;fontSize=12;fontColor=#000000;" edge="1" parent="WIyWlLk6GJQsqaUBKTNV-1">
          <mxGeometry relative="1" as="geometry">
            <mxPoint x="169.5" y="400" as="sourcePoint" />
            <mxPoint x="169.5" y="430" as="targetPoint" />
          </mxGeometry>
        </mxCell>
        <mxCell id="P1RDxfDmJsvN-1OjrffR-62" value="" style="endArrow=none;html=1;rounded=0;fontSize=12;fontColor=#000000;entryX=0.5;entryY=1;entryDx=0;entryDy=0;" edge="1" parent="WIyWlLk6GJQsqaUBKTNV-1">
          <mxGeometry width="50" height="50" relative="1" as="geometry">
            <mxPoint x="760" y="510" as="sourcePoint" />
            <mxPoint x="715" y="200" as="targetPoint" />
            <Array as="points">
              <mxPoint x="760" y="290" />
              <mxPoint x="760" y="240" />
            </Array>
          </mxGeometry>
        </mxCell>
        <mxCell id="P1RDxfDmJsvN-1OjrffR-83" style="edgeStyle=orthogonalEdgeStyle;rounded=0;orthogonalLoop=1;jettySize=auto;html=1;fontSize=12;fontColor=#000000;" edge="1" parent="WIyWlLk6GJQsqaUBKTNV-1" source="P1RDxfDmJsvN-1OjrffR-63">
          <mxGeometry relative="1" as="geometry">
            <mxPoint x="670" y="600" as="targetPoint" />
          </mxGeometry>
        </mxCell>
        <mxCell id="P1RDxfDmJsvN-1OjrffR-63" value="cubeRoot" style="rounded=0;whiteSpace=wrap;html=1;" vertex="1" parent="WIyWlLk6GJQsqaUBKTNV-1">
          <mxGeometry x="620" y="490" width="100" height="30" as="geometry" />
        </mxCell>
        <mxCell id="P1RDxfDmJsvN-1OjrffR-80" value="" style="edgeStyle=orthogonalEdgeStyle;rounded=0;orthogonalLoop=1;jettySize=auto;html=1;fontSize=12;fontColor=#000000;" edge="1" parent="WIyWlLk6GJQsqaUBKTNV-1" source="P1RDxfDmJsvN-1OjrffR-64" target="P1RDxfDmJsvN-1OjrffR-63">
          <mxGeometry relative="1" as="geometry" />
        </mxCell>
        <mxCell id="P1RDxfDmJsvN-1OjrffR-64" value="cube" style="rounded=0;whiteSpace=wrap;html=1;" vertex="1" parent="WIyWlLk6GJQsqaUBKTNV-1">
          <mxGeometry x="620" y="410" width="100" height="30" as="geometry" />
        </mxCell>
        <mxCell id="P1RDxfDmJsvN-1OjrffR-79" value="" style="edgeStyle=orthogonalEdgeStyle;rounded=0;orthogonalLoop=1;jettySize=auto;html=1;fontSize=12;fontColor=#000000;" edge="1" parent="WIyWlLk6GJQsqaUBKTNV-1" source="P1RDxfDmJsvN-1OjrffR-65" target="P1RDxfDmJsvN-1OjrffR-64">
          <mxGeometry relative="1" as="geometry" />
        </mxCell>
        <mxCell id="P1RDxfDmJsvN-1OjrffR-65" value="squareRoot" style="rounded=0;whiteSpace=wrap;html=1;" vertex="1" parent="WIyWlLk6GJQsqaUBKTNV-1">
          <mxGeometry x="620" y="340" width="100" height="30" as="geometry" />
        </mxCell>
        <mxCell id="P1RDxfDmJsvN-1OjrffR-78" value="" style="edgeStyle=orthogonalEdgeStyle;rounded=0;orthogonalLoop=1;jettySize=auto;html=1;fontSize=12;fontColor=#000000;" edge="1" parent="WIyWlLk6GJQsqaUBKTNV-1" source="P1RDxfDmJsvN-1OjrffR-66" target="P1RDxfDmJsvN-1OjrffR-65">
          <mxGeometry relative="1" as="geometry" />
        </mxCell>
        <mxCell id="P1RDxfDmJsvN-1OjrffR-66" value="square" style="rounded=0;whiteSpace=wrap;html=1;" vertex="1" parent="WIyWlLk6GJQsqaUBKTNV-1">
          <mxGeometry x="620" y="270" width="100" height="30" as="geometry" />
        </mxCell>
        <mxCell id="P1RDxfDmJsvN-1OjrffR-68" value="" style="endArrow=classic;html=1;rounded=0;fontSize=12;fontColor=#000000;entryX=1;entryY=0.5;entryDx=0;entryDy=0;" edge="1" parent="WIyWlLk6GJQsqaUBKTNV-1" target="P1RDxfDmJsvN-1OjrffR-65">
          <mxGeometry width="50" height="50" relative="1" as="geometry">
            <mxPoint x="760" y="355" as="sourcePoint" />
            <mxPoint x="720" y="360" as="targetPoint" />
          </mxGeometry>
        </mxCell>
        <mxCell id="P1RDxfDmJsvN-1OjrffR-69" value="" style="endArrow=classic;html=1;rounded=0;fontSize=12;fontColor=#000000;entryX=1;entryY=0.5;entryDx=0;entryDy=0;" edge="1" parent="WIyWlLk6GJQsqaUBKTNV-1">
          <mxGeometry width="50" height="50" relative="1" as="geometry">
            <mxPoint x="760" y="284.5" as="sourcePoint" />
            <mxPoint x="720" y="284.5" as="targetPoint" />
          </mxGeometry>
        </mxCell>
        <mxCell id="P1RDxfDmJsvN-1OjrffR-70" value="" style="endArrow=classic;html=1;rounded=0;fontSize=12;fontColor=#000000;entryX=1;entryY=0.5;entryDx=0;entryDy=0;" edge="1" parent="WIyWlLk6GJQsqaUBKTNV-1">
          <mxGeometry width="50" height="50" relative="1" as="geometry">
            <mxPoint x="760" y="504.5" as="sourcePoint" />
            <mxPoint x="720" y="504.5" as="targetPoint" />
          </mxGeometry>
        </mxCell>
        <mxCell id="P1RDxfDmJsvN-1OjrffR-71" value="" style="endArrow=classic;html=1;rounded=0;fontSize=12;fontColor=#000000;entryX=1;entryY=0.5;entryDx=0;entryDy=0;" edge="1" parent="WIyWlLk6GJQsqaUBKTNV-1">
          <mxGeometry width="50" height="50" relative="1" as="geometry">
            <mxPoint x="760" y="424.5" as="sourcePoint" />
            <mxPoint x="720" y="424.5" as="targetPoint" />
          </mxGeometry>
        </mxCell>
        <mxCell id="P1RDxfDmJsvN-1OjrffR-72" value="case&amp;nbsp;&lt;br&gt;choice:&amp;nbsp;" style="text;html=1;strokeColor=none;fillColor=none;align=center;verticalAlign=middle;whiteSpace=wrap;rounded=0;labelBackgroundColor=#FFFFFF;fontSize=12;fontColor=#000000;" vertex="1" parent="WIyWlLk6GJQsqaUBKTNV-1">
          <mxGeometry x="720" y="210" width="60" height="30" as="geometry" />
        </mxCell>
        <mxCell id="P1RDxfDmJsvN-1OjrffR-73" value="END" style="rounded=1;whiteSpace=wrap;html=1;labelBackgroundColor=#FFFFFF;fontSize=12;fontColor=#000000;" vertex="1" parent="WIyWlLk6GJQsqaUBKTNV-1">
          <mxGeometry x="354" y="650" width="120" height="30" as="geometry" />
        </mxCell>
        <mxCell id="P1RDxfDmJsvN-1OjrffR-85" value="" style="endArrow=none;html=1;rounded=0;fontSize=12;fontColor=#000000;" edge="1" parent="WIyWlLk6GJQsqaUBKTNV-1">
          <mxGeometry width="50" height="50" relative="1" as="geometry">
            <mxPoint x="170" y="600" as="sourcePoint" />
            <mxPoint x="670" y="600" as="targetPoint" />
          </mxGeometry>
        </mxCell>
        <mxCell id="P1RDxfDmJsvN-1OjrffR-86" value="" style="edgeStyle=orthogonalEdgeStyle;rounded=0;orthogonalLoop=1;jettySize=auto;html=1;fontSize=12;fontColor=#000000;" edge="1" parent="WIyWlLk6GJQsqaUBKTNV-1">
          <mxGeometry relative="1" as="geometry">
            <mxPoint x="414" y="600" as="sourcePoint" />
            <mxPoint x="414" y="650" as="targetPoint" />
          </mxGeometry>
        </mxCell>
      </root>
    </mxGraphModel>
  </diagram>
</mxfile>
